<svg width="73" height="78" viewBox="0 0 73 78" fill="none" xmlns="http://www.w3.org/2000/svg">
<path fill-rule="evenodd" clip-rule="evenodd" d="M1.94334 20.0105L36.4781 1.27231L71.0128 20.0105C71.1087 20.0622 71.1679 20.1588 71.1679 20.262V57.5686C71.1679 57.6735 71.1087 57.7685 71.0128 57.8218L36.6332 76.4751L36.6287 76.4767L36.6241 76.4784L36.6195 76.4817L36.6103 76.4851L36.6057 76.4884L36.6009 76.4901L36.5963 76.4917L36.5724 76.5001L36.5674 76.5017L36.5626 76.5034H36.5577L36.5529 76.505L36.5479 76.5067H36.543L36.538 76.5084H36.533L36.5281 76.51H36.5231L36.5181 76.5117H36.5073L36.5025 76.5134H36.4529L36.448 76.5117H36.438L36.4331 76.51H36.4281L36.4232 76.5084H36.4182L36.4132 76.5067H36.4083L36.4033 76.505L36.3985 76.5034H36.3936L36.3888 76.5017L36.3838 76.5001L36.3599 76.4917L36.3553 76.4901L36.3505 76.4884L36.3459 76.4851L36.3367 76.4817L36.3321 76.4784L36.3275 76.4767L36.323 76.4751L1.94334 57.8218C1.84746 57.7685 1.78827 57.6735 1.78827 57.5686V20.262C1.78827 20.1588 1.84746 20.0622 1.94334 20.0105ZM2.40855 57.4004L36.1679 75.7173V55.0721L21.589 47.1627C21.4929 47.1095 21.4339 47.0145 21.4339 46.9096V31.0893L2.40855 20.7667V57.4004ZM51.5223 31.0893V47.0778L36.7882 55.0721V75.7173L70.5476 57.4004V20.7667L51.5223 31.0893ZM22.0542 46.7414L36.1679 54.3992V39.0835L22.0542 31.4257V46.7414ZM50.902 31.5339L36.7882 39.1918V54.3992L50.902 46.7414V31.5339ZM22.3643 30.9211L36.4781 38.5789L50.5919 30.9211L36.4781 23.2632L22.3643 30.9211ZM36.4781 22.5904L51.2121 30.5846L70.2375 20.262L36.4781 1.94517L2.71869 20.262L21.744 30.5846L36.4781 22.5904Z" stroke="white" stroke-width="3" stroke-miterlimit="2" stroke-linejoin="round"/>
</svg>
