<svg width="937" height="1024" viewBox="0 0 937 1024" fill="none" xmlns="http://www.w3.org/2000/svg">
<mask id="mask0" style="mask-type:alpha" maskUnits="userSpaceOnUse" x="0" y="-1" width="938" height="1026">
<rect x="0.5" y="-0.5" width="937" height="1025" rx="8.5" fill="#F3F3F3" stroke="white"/>
</mask>
<g mask="url(#mask0)">
<g filter="url(#filter0_f)">
<path d="M1079.35 925.774C1079.35 1211.94 1015.27 1262 876.794 1262C738.315 1262 423.5 622.396 423.5 336.226C423.5 50.0561 487.578 0 626.056 0C764.535 0 1079.35 639.604 1079.35 925.774Z" fill="#F8D6C8"/>
<path d="M876.794 1262.5C946.08 1262.5 996.939 1249.98 1030.41 1201.48C1063.84 1153.06 1079.85 1068.86 1079.85 925.774C1079.85 854.155 1060.16 760.466 1028.47 660.243C996.787 560.011 953.098 453.209 905.081 355.353C857.066 257.499 804.716 168.575 755.702 104.107C731.196 71.8738 707.513 45.7384 685.611 27.6563C663.724 9.5868 643.544 -0.5 626.056 -0.5C556.77 -0.5 505.911 12.0207 472.437 60.5153C439.012 108.94 423 193.142 423 336.226C423 407.845 442.694 501.534 474.377 601.757C506.063 701.989 549.752 808.791 597.769 906.647C645.784 1004.5 698.134 1093.42 747.148 1157.89C771.654 1190.13 795.337 1216.26 817.239 1234.34C839.126 1252.41 859.306 1262.5 876.794 1262.5Z" stroke="white"/>
</g>
<g filter="url(#filter1_f)">
<path d="M829.1 1501C829.1 1994.65 732.824 2081 524.763 2081C316.703 2081 -156.3 977.659 -156.3 484.004C-156.3 -9.65124 -60.0243 -96 148.036 -96C356.097 -96 829.1 1007.34 829.1 1501Z" fill="#CF3636"/>
<path d="M524.763 2081.5C576.806 2081.5 621.91 2076.1 660.282 2060.26C698.669 2044.41 730.291 2018.11 755.383 1976.38C805.538 1892.95 829.6 1747.82 829.6 1501C829.6 1254.06 711.315 854.737 567.051 517.181C494.915 348.394 416.27 195.02 342.645 83.8344C305.834 28.2433 270.265 -16.8191 237.381 -47.9895C204.517 -79.1406 174.247 -96.5 148.036 -96.5C95.9934 -96.5 50.8894 -91.1015 12.5174 -75.2568C-25.8694 -59.406 -57.4915 -33.1122 -82.5831 8.62362C-132.739 92.0489 -156.8 237.18 -156.8 484.004C-156.8 730.937 -38.5149 1130.26 105.749 1467.82C177.885 1636.61 256.53 1789.98 330.155 1901.17C366.966 1956.76 402.534 2001.82 435.419 2032.99C468.283 2064.14 498.553 2081.5 524.763 2081.5Z" stroke="white"/>
</g>
<g filter="url(#filter2_f)">
<g filter="url(#filter3_f)">
<path d="M786.2 542.916C786.2 837.476 698.244 889 508.162 889C318.08 889 -114.05 230.644 -114.05 -63.9161C-114.05 -358.476 -26.0936 -410 163.988 -410C354.07 -410 786.2 248.356 786.2 542.916Z" fill="#8826EA"/>
<path d="M508.162 889.5C603.215 889.5 672.924 876.627 718.829 826.757C764.717 776.905 786.7 690.209 786.7 542.916C786.7 469.175 759.661 372.724 716.17 269.561C672.675 166.386 612.703 56.4498 546.793 -44.2758C480.884 -145 409.026 -236.53 341.751 -302.885C308.114 -336.063 275.611 -362.958 245.561 -381.561C215.52 -400.159 187.883 -410.5 163.988 -410.5C68.9349 -410.5 -0.774429 -397.627 -46.6795 -347.757C-92.5674 -297.905 -114.55 -211.21 -114.55 -63.9161C-114.55 9.82471 -87.5109 106.276 -44.0204 209.439C-0.524826 312.614 59.4465 422.55 125.357 523.276C191.266 624 263.124 715.53 330.399 781.885C364.036 815.063 396.539 841.958 426.589 860.561C456.63 879.159 484.267 889.5 508.162 889.5Z" stroke="white"/>
</g>
</g>
<g filter="url(#filter4_f)">
<path d="M1103.4 336.31C1103.4 590.532 1039.26 635 900.662 635C762.059 635 649.7 428.912 649.7 174.69C649.7 -79.5322 713.835 -124 852.438 -124C991.04 -124 1103.4 82.0878 1103.4 336.31Z" fill="#ED8988"/>
<path d="M900.662 635.5C969.993 635.5 1020.89 624.384 1054.4 581.295C1087.87 538.255 1103.9 463.425 1103.9 336.31C1103.9 209.132 1075.8 93.9687 1030.33 10.5823C984.882 -72.7851 922.008 -124.5 852.438 -124.5C783.106 -124.5 732.208 -113.384 698.698 -70.2953C665.226 -27.2549 649.2 47.5749 649.2 174.69C649.2 301.868 677.303 417.031 722.766 500.418C768.218 583.785 831.092 635.5 900.662 635.5Z" stroke="white"/>
</g>
</g>
<g filter="url(#filter5_f)">
<path fill-rule="evenodd" clip-rule="evenodd" d="M373.157 443.901L468.439 392.491L563.722 443.901C563.987 444.042 564.15 444.307 564.15 444.591V546.945C564.15 547.233 563.987 547.493 563.722 547.639L468.867 598.816L468.855 598.821L468.842 598.825L468.83 598.835L468.804 598.844L468.792 598.853L468.778 598.857L468.766 598.862L468.7 598.885L468.686 598.889L468.673 598.894H468.659L468.646 598.898L468.632 598.903H468.618L468.605 598.908H468.591L468.577 598.912H468.564L468.55 598.917H468.52L468.507 598.921H468.37L468.356 598.917H468.329L468.315 598.912H468.302L468.288 598.908H468.274L468.261 598.903H468.247L468.233 598.898L468.22 598.894H468.206L468.193 598.889L468.179 598.885L468.113 598.862L468.101 598.857L468.087 598.853L468.075 598.844L468.049 598.835L468.037 598.825L468.024 598.821L468.012 598.816L373.157 547.639C372.892 547.493 372.729 547.233 372.729 546.945V444.591C372.729 444.307 372.892 444.042 373.157 443.901ZM374.44 546.483L467.584 596.737V540.095L427.36 518.395C427.095 518.249 426.932 517.989 426.932 517.701V474.296L374.44 445.975V546.483ZM509.947 474.296V518.162L469.295 540.095V596.737L562.439 546.483V445.975L509.947 474.296ZM428.643 517.239L467.584 538.249V496.229L428.643 475.219V517.239ZM508.236 475.516L469.295 496.526V538.249L508.236 517.239V475.516ZM429.499 473.835L468.439 494.845L507.38 473.835L468.439 452.825L429.499 473.835ZM468.439 450.979L509.091 472.912L561.583 444.591L468.439 394.337L375.296 444.591L427.788 472.912L468.439 450.979Z" stroke="white" stroke-width="3" stroke-miterlimit="2" stroke-linejoin="round"/>
</g>
<defs>
<filter id="filter0_f" x="322.5" y="-101" width="857.85" height="1464" filterUnits="userSpaceOnUse" color-interpolation-filters="sRGB">
<feFlood flood-opacity="0" result="BackgroundImageFix"/>
<feBlend mode="normal" in="SourceGraphic" in2="BackgroundImageFix" result="shape"/>
<feGaussianBlur stdDeviation="50" result="effect1_foregroundBlur"/>
</filter>
<filter id="filter1_f" x="-397.3" y="-337" width="1467.4" height="2659" filterUnits="userSpaceOnUse" color-interpolation-filters="sRGB">
<feFlood flood-opacity="0" result="BackgroundImageFix"/>
<feBlend mode="normal" in="SourceGraphic" in2="BackgroundImageFix" result="shape"/>
<feGaussianBlur stdDeviation="120" result="effect1_foregroundBlur"/>
</filter>
<filter id="filter2_f" x="-315.05" y="-611" width="1302.25" height="1701" filterUnits="userSpaceOnUse" color-interpolation-filters="sRGB">
<feFlood flood-opacity="0" result="BackgroundImageFix"/>
<feBlend mode="normal" in="SourceGraphic" in2="BackgroundImageFix" result="shape"/>
<feGaussianBlur stdDeviation="100" result="effect1_foregroundBlur"/>
</filter>
<filter id="filter3_f" x="-315.05" y="-611" width="1302.25" height="1701" filterUnits="userSpaceOnUse" color-interpolation-filters="sRGB">
<feFlood flood-opacity="0" result="BackgroundImageFix"/>
<feBlend mode="normal" in="SourceGraphic" in2="BackgroundImageFix" result="shape"/>
<feGaussianBlur stdDeviation="100" result="effect1_foregroundBlur"/>
</filter>
<filter id="filter4_f" x="448.7" y="-325" width="855.7" height="1161" filterUnits="userSpaceOnUse" color-interpolation-filters="sRGB">
<feFlood flood-opacity="0" result="BackgroundImageFix"/>
<feBlend mode="normal" in="SourceGraphic" in2="BackgroundImageFix" result="shape"/>
<feGaussianBlur stdDeviation="100" result="effect1_foregroundBlur"/>
</filter>
<filter id="filter5_f" x="314" y="349" width="309" height="294" filterUnits="userSpaceOnUse" color-interpolation-filters="sRGB">
<feFlood flood-opacity="0" result="BackgroundImageFix"/>
<feBlend mode="normal" in="SourceGraphic" in2="BackgroundImageFix" result="shape"/>
<feGaussianBlur stdDeviation="20" result="effect1_foregroundBlur"/>
</filter>
</defs>
</svg>
