<?xml version="1.0" encoding="UTF-8"?>
<svg width="201px" height="62px" viewBox="0 0 201 62" version="1.1" xmlns="http://www.w3.org/2000/svg" xmlns:xlink="http://www.w3.org/1999/xlink">
    <title>logo-block</title>
    <g id="Page-1" stroke="none" stroke-width="1" fill="none" fill-rule="evenodd">
        <g id="Desktop-HD" transform="translate(-1078.000000, -4632.000000)">
            <g id="page-wrapper" transform="translate(-1.000000, 0.000000)">
                <g id="footer" transform="translate(0.966881, 4208.000000)">
                    <g id="logo-block" transform="translate(1078.033149, 424.000000)">
                        <text id="TM" font-family="SpaceGrotesk-Regular, Space Grotesk" font-size="8" font-weight="normal" letter-spacing="-0.00666666667" fill="#6500FE">
                            <tspan x="186.592416" y="8">TM</tspan>
                        </text>
                        <path d="M10.8438659,57 L10.8438659,47.04 L14.4038659,43.68 L23.6838659,57 L29.4038659,57 L17.6438659,40.64 L29.9238659,29 L23.4038659,29 L11.2438659,40.96 L10.8438659,40.96 L10.8438659,29 L6.20386587,29 L6.20386587,57 L10.8438659,57 Z M41.3705325,57.56 C48.2905325,57.56 52.6905325,53.56 52.6905325,46.32 L52.6905325,39.68 C52.6905325,32.44 48.2905325,28.44 41.3705325,28.44 C34.4505325,28.44 30.0105325,32.44 30.0105325,39.68 L30.0105325,46.32 C30.0105325,53.56 34.4505325,57.56 41.3705325,57.56 Z M41.3705325,53.44 C37.1305325,53.44 34.6505325,50.72 34.6505325,46.48 L34.6505325,39.52 C34.6505325,35.28 37.1305325,32.56 41.3705325,32.56 C45.5705325,32.56 48.0505325,35.28 48.0505325,39.52 L48.0505325,46.48 C48.0505325,50.72 45.5705325,53.44 41.3705325,53.44 Z M61.2971992,57 L61.2971992,29 L56.6571992,29 L56.6571992,57 L61.2971992,57 Z M70.9438659,57 L70.9438659,33.72 L71.3438659,33.72 L79.4638659,57 L87.3838659,57 L87.3838659,29 L82.7838659,29 L82.7838659,52.28 L82.3838659,52.28 L74.2238659,29 L66.3038659,29 L66.3038659,57 L70.9438659,57 Z M102.710533,57.56 C109.630533,57.56 114.030533,53.56 114.030533,46.32 L114.030533,39.68 C114.030533,32.44 109.630533,28.44 102.710533,28.44 C95.7905325,28.44 91.3505325,32.44 91.3505325,39.68 L91.3505325,46.32 C91.3505325,53.56 95.7905325,57.56 102.710533,57.56 Z M102.710533,53.44 C98.4705325,53.44 95.9905325,50.72 95.9905325,46.48 L95.9905325,39.52 C95.9905325,35.28 98.4705325,32.56 102.710533,32.56 C106.910533,32.56 109.390533,35.28 109.390533,39.52 L109.390533,46.48 C109.390533,50.72 106.910533,53.44 102.710533,53.44 Z M127.477199,57.56 C133.837199,57.56 137.917199,54.12 137.917199,49.08 C137.917199,44.04 134.157199,42 128.557199,40.8 L127.237199,40.48 C123.717199,39.68 122.037199,38.68 122.037199,36.28 C122.037199,33.92 123.837199,32.52 127.197199,32.52 C130.637199,32.52 132.877199,33.92 132.877199,37.4 L132.877199,38.28 L137.437199,38.28 L137.437199,37.4 C137.437199,31.44 133.077199,28.44 127.197199,28.44 C121.317199,28.44 117.477199,31.44 117.477199,36.44 C117.477199,41.4 120.757199,43.36 126.317199,44.6 L127.637199,44.88 C131.277199,45.72 133.357199,46.64 133.357199,49.2 C133.357199,51.72 131.317199,53.48 127.477199,53.48 C123.597199,53.48 121.157199,51.64 121.157199,47.8 L121.157199,47.44 L116.597199,47.44 L116.597199,47.8 C116.597199,54.08 121.117199,57.56 127.477199,57.56 Z" id="KOINOS" fill="#6500FE" fill-rule="nonzero"></path>
                        <g id="koinos-mark" transform="translate(146.774613, 3.443299)" fill="#FFFFFF" fill-opacity="0" stroke="#6500FE">
                            <path d="M0.101963688,13.7559617 L22.8095683,0.556701031 L45.5171728,13.7559617 C45.5802155,13.7923298 45.6191365,13.8603733 45.6191365,13.9331094 L45.6191365,40.2119681 C45.6191365,40.2858774 45.5802155,40.3527477 45.5171728,40.3902889 L22.911532,53.5297183 L22.9086187,53.5308914 L22.9055889,53.5320646 L22.9025591,53.5344109 L22.8964996,53.5367573 L22.8934698,53.5391036 L22.8903235,53.5402767 L22.8872937,53.5414499 L22.8715622,53.5473157 L22.8682993,53.5484889 L22.865153,53.5496621 L22.8618902,53.5496621 L22.8587439,53.5508352 L22.8554811,53.5520084 L22.8522182,53.5520084 L22.8489554,53.5531815 L22.8456925,53.5531815 L22.8424297,53.5543547 L22.8391669,53.5543547 L22.835904,53.5555279 L22.8287957,53.5555279 L22.8256494,53.556701 L22.793021,53.556701 L22.7897582,53.5555279 L22.7832325,53.5555279 L22.7799697,53.5543547 L22.7767068,53.5543547 L22.773444,53.5531815 L22.7701811,53.5531815 L22.7669183,53.5520084 L22.7636555,53.5520084 L22.7603926,53.5508352 L22.7572463,53.5496621 L22.7539835,53.5496621 L22.7508372,53.5484889 L22.7475743,53.5473157 L22.7318428,53.5414499 L22.728813,53.5402767 L22.7256667,53.5391036 L22.7226369,53.5367573 L22.7165774,53.5344109 L22.7135476,53.5320646 L22.7105178,53.5308914 L22.7076046,53.5297183 L0.101963688,40.3902889 C0.0389209962,40.3527477 0,40.2858774 0,40.2119681 L0,13.9331094 C0,13.8603733 0.0389209962,13.7923298 0.101963688,13.7559617 Z M0.407854751,40.0934786 L22.6056409,52.995929 L22.6056409,38.4533963 L13.0195394,32.8820436 C12.9563801,32.8445023 12.9175757,32.777632 12.9175757,32.7037227 L12.9175757,21.5598442 L0.407854751,14.2885779 L0.407854751,40.0934786 Z M32.7015609,21.5598442 L32.7015609,32.8222122 L23.0134956,38.4533963 L23.0134956,52.995929 L45.2112818,40.0934786 L45.2112818,14.2885779 L32.7015609,21.5598442 Z M13.3254304,32.5852332 L22.6056409,37.9794383 L22.6056409,27.1910282 L13.3254304,21.7968232 L13.3254304,32.5852332 Z M32.2937061,21.8730788 L23.0134956,27.2672838 L23.0134956,37.9794383 L32.2937061,32.5852332 L32.2937061,21.8730788 Z M13.5293578,21.4413547 L22.8095683,26.8355597 L32.0897787,21.4413547 L22.8095683,16.0471497 L13.5293578,21.4413547 Z M22.8095683,15.5731917 L32.4976335,21.2043757 L45.0073544,13.9331094 L22.8095683,1.03065902 L0.611782126,13.9331094 L13.121503,21.2043757 L22.8095683,15.5731917 Z" id="Shape"></path>
                        </g>
                    </g>
                </g>
            </g>
        </g>
    </g>
</svg>